<svg id="Layer_1" data-name="Layer 1" xmlns="http://www.w3.org/2000/svg" xmlns:xlink="http://www.w3.org/1999/xlink" viewBox="0 0 380 68.24"><defs><style>.cls-1{fill:#fff;}.cls-2,.cls-4{fill:#e55637;}.cls-2{fill-opacity:0;}.cls-3{fill:url(#linear-gradient);}</style><linearGradient id="linear-gradient" x1="46.6" y1="3.16" x2="142.72" y2="3.16" gradientTransform="matrix(0.7, 0, 0, -0.7, 21.23, 36.32)" gradientUnits="userSpaceOnUse"><stop offset="0" stop-color="#e55637"/><stop offset="1" stop-color="#e55637"/></linearGradient></defs><rect class="cls-1" width="380" height="68.24"/><rect class="cls-2" x="53.41" width="66.96" height="68.24"/><path class="cls-3" d="M60.38,30.25V22.52L73.8,30.27l26.82-15.49,6.71,3.86L80.51,34.14,87.16,38l32.89-19a4.42,4.42,0,0,0-1.63-1.64L100.56,7.06,73.8,22.52l-6.71-3.88L93.86,3.19,89.35.58A4.38,4.38,0,0,0,85,.58L55.87,17.42a4.35,4.35,0,0,0-2.18,3.74v13L87.17,53.45,114,38v7.74L87.17,61.19,53.69,41.85v5.23a4.35,4.35,0,0,0,2.18,3.77L85,67.66a4.38,4.38,0,0,0,4.35,0l29.13-16.81a4.34,4.34,0,0,0,2.17-3.76V26.39L87.17,45.72Z" transform="translate(-0.28)"/><path class="cls-4" d="M157,22a24.1,24.1,0,0,0-6-2.78,20.66,20.66,0,0,0-5.75-.91h0a10.63,10.63,0,0,0-5.81,1.39,4.36,4.36,0,0,0-2.17,3.84h0a5.07,5.07,0,0,0,1.31,3.61,9.2,9.2,0,0,0,3.21,2.21c1.27.53,3,1.16,5.3,1.87h0a60.13,60.13,0,0,1,6.85,2.5,12,12,0,0,1,4.47,3.54,9.89,9.89,0,0,1,1.84,6.23h0a10.4,10.4,0,0,1-1.93,6.25,12.34,12.34,0,0,1-5.43,4.14,20.57,20.57,0,0,1-8,1.46h0A23.35,23.35,0,0,1,136,53.59a24.44,24.44,0,0,1-7.5-4.76h0L131,43.88a21.4,21.4,0,0,0,6.71,4.5A18.42,18.42,0,0,0,145,50h0a11.64,11.64,0,0,0,6.58-1.63A5.12,5.12,0,0,0,154,43.88h0a5.16,5.16,0,0,0-1.31-3.62A9.08,9.08,0,0,0,149.33,38a56.65,56.65,0,0,0-5.39-1.85h0a55.9,55.9,0,0,1-6.78-2.43,11.76,11.76,0,0,1-4.44-3.52,9.69,9.69,0,0,1-1.81-6.14h0a9.8,9.8,0,0,1,1.84-5.89,11.57,11.57,0,0,1,5.18-3.93,20.3,20.3,0,0,1,7.74-1.37h0A25.23,25.23,0,0,1,153,14a24.79,24.79,0,0,1,6.4,3h0Zm36.52,33h-5.48V50.61q-3.51,4.65-11,4.65h0A12.6,12.6,0,0,1,171.31,54a9.26,9.26,0,0,1-3.81-3.45,9.4,9.4,0,0,1-1.34-5h0a8.08,8.08,0,0,1,3.13-6.7q3.12-2.47,8.72-2.53h10V34.89a6.5,6.5,0,0,0-2-5.15,8.76,8.76,0,0,0-6-1.81h0a17.17,17.17,0,0,0-9.71,3.39h0L168,27.51a28.84,28.84,0,0,1,6.28-3.19,21.61,21.61,0,0,1,6.88-1h0q5.89,0,9.11,2.89a10.42,10.42,0,0,1,3.27,8.07h0Zm-15.37-4.35a11.27,11.27,0,0,0,6.58-1.88,7.37,7.37,0,0,0,3.24-5h0V40.67h-9.23a10.78,10.78,0,0,0-5.56,1.13,3.89,3.89,0,0,0-1.82,3.57h0a4.61,4.61,0,0,0,1.85,3.87,7.86,7.86,0,0,0,4.94,1.43Zm40.68-2,1.49,4.29A13.68,13.68,0,0,1,213,55.26h0A8.37,8.37,0,0,1,206.9,53q-2.33-2.22-2.33-6.75h0V28.82h-4.46V24.59h4.46V16.13h5.6v8.46h9.65v4.23h-9.65V45.26a5.78,5.78,0,0,0,1,3.75A3.51,3.51,0,0,0,214,50.13h0a10,10,0,0,0,4.89-1.48Zm38.41-3V13.33h5.66V55h-5.78L233.33,22.75V55h-5.71V13.33h5.78ZM287,23.34q7.32,0,11.07,4.32t3.75,12h0c0,.8,0,1.4-.05,1.79h-24.9a10.74,10.74,0,0,0,3.55,6.73,10.49,10.49,0,0,0,7.12,2.5h0a13.57,13.57,0,0,0,5.2-1A12.63,12.63,0,0,0,297,46.81h0L300,50a15.8,15.8,0,0,1-5.6,3.87,18.69,18.69,0,0,1-7.27,1.37h0a16.73,16.73,0,0,1-8.24-2,14,14,0,0,1-5.61-5.62,17.06,17.06,0,0,1-2-8.28h0a16.84,16.84,0,0,1,2-8.25,14.64,14.64,0,0,1,5.57-5.66A16.12,16.12,0,0,1,287,23.34ZM276.81,37.15h20A9.63,9.63,0,0,0,294,30.39a9.69,9.69,0,0,0-6.91-2.46h0a9.94,9.94,0,0,0-6.94,2.5,10.47,10.47,0,0,0-3.31,6.72Zm48,11.5,1.5,4.29a13.68,13.68,0,0,1-7.39,2.32h0A8.39,8.39,0,0,1,312.85,53c-1.56-1.48-2.33-3.73-2.33-6.75h0V28.82h-4.47V24.59h4.47V16.13h5.6v8.46h9.65v4.23h-9.65V45.26a5.85,5.85,0,0,0,.95,3.75,3.55,3.55,0,0,0,2.87,1.12h0a10,10,0,0,0,4.87-1.48Z" transform="translate(-0.28)"/></svg>