           <svg data-v-2cb57da0="" version="1.0" xmlns="http://www.w3.org/2000/svg" xmlns:xlink="http://www.w3.org/1999/xlink" width="380" height="279" viewBox="0 0 340.000000 250.000000" preserveAspectRatio="xMidYMid meet" color-interpolation-filters="sRGB" style="margin: auto;">
                    <rect data-v-2cb57da0="" x="0" y="0" width="100%" height="100%" fill="#FFFFFF" fill-opacity="1" class="background"></rect>
                    <g data-v-2cb57da0="" fill="#E55637" class="icon-text-wrapper icon-svg-group iconsvg" transform="translate(47.86000061035156,94.4270630478859)">
                        <g class="iconsvg-imagesvg" transform="translate(0,0)" fill="#E55637">
                            <g fill="#E55637">
                                <rect fill="#E55637" fill-opacity="0" stroke-width="2px" x="0" y="0" width="60" height="61.145873672624994" class="image-rect"></rect>
                                <svg x="0" y="0" width="60" height="61.145873672624994" filtersec="colorsb9052579312" class="image-svg-svg primary" style="overflow: visible;" fill="#E55637">
                                    <svg xmlns="http://www.w3.org/2000/svg" viewBox="-0.0000015987282040441642 -0.0013874173164367676 96.1199951171875 97.95584869384766" fill="#E55637">
                                        <defs>
                                            <linearGradient id="afb0ec122-65d4-4d33-ac27-76a6ebda6543" y1="48.98" x2="96.12" y2="48.98" gradientUnits="userSpaceOnUse">
                                                <stop offset="0" stop-color="#e55637"></stop>
                                                <stop offset="1" stop-color="#e55637"></stop>
                                            </linearGradient>
                                            <pattern id="watermark" patternUnits="userSpaceOnUse" width="100%" height="100%">
                                                <image xlink:href="https://www.logoai.com/img/LOGOAI-watermark.png" x="0" y="0" width="100%" height="100%"></image>
                                            </pattern>
                                            <linearGradient id="afb0ec122-65d4-4d33-ac27-76a6ebda6543" y1="48.98" x2="96.12" y2="48.98" gradientUnits="userSpaceOnUse">
                                                <stop offset="0" stop-color="#e55637"></stop>
                                                <stop offset="1" stop-color="#e55637"></stop>
                                            </linearGradient>
                                        </defs>
                                        <g fill="#E55637">
                                            <path d="M9.6 43.42V32.33l19.26 11.12 38.5-22.23L77 26.76 38.5 49l9.55 5.57 47.2-27.28a6.18 6.18 0 0 0-2.33-2.36L67.28 10.14 28.86 32.32l-9.63-5.56L57.66 4.58 51.18.83a6.27 6.27 0 0 0-6.24 0L3.12 25A6.26 6.26 0 0 0 0 30.38V49l48.06 27.73 38.53-22.25v11.1L48.06 87.83 0 60.08v7.5A6.26 6.26 0 0 0 3.12 73l41.82 24.12a6.25 6.25 0 0 0 6.24 0L93 73a6.26 6.26 0 0 0 3.12-5.41V37.88L48.06 65.63z" fill="url(&quot;#afb0ec122-65d4-4d33-ac27-76a6ebda6543&quot;)"></path>
                                        </g>
                                    </svg>
                                </svg>
                                <!---->
                            </g>
                        </g>
                        <g transform="translate(67,11.522937774658203)" fill="#E55637">
                            <g data-gra="path-name" fill-rule="" class="tp-name iconsvg-namesvg" fill="#E55637">
                                <g transform="scale(1)" fill="#E55637">
                                    <g fill="#E55637">
                                        <path d="M27.16-29.56Q24.55-31.22 21.75-32.05 18.94-32.87 16.6-32.87L16.6-32.87Q13.34-32.87 11.39-31.62 9.45-30.36 9.45-28.18L9.45-28.18Q9.45-26.2 10.62-24.95 11.79-23.69 13.5-22.97 15.21-22.25 18.25-21.29L18.25-21.29Q22.04-20.12 24.39-19.05 26.74-17.98 28.39-15.88 30.04-13.77 30.04-10.3L30.04-10.3Q30.04-7.1 28.31-4.7 26.58-2.29 23.45-0.99 20.33 0.32 16.28 0.32L16.28 0.32Q12.17 0.32 8.27-1.28 4.38-2.88 1.55-5.55L1.55-5.55 3.84-9.98Q6.51-7.36 9.85-5.95 13.18-4.54 16.33-4.54L16.33-4.54Q20.07-4.54 22.23-6 24.39-7.47 24.39-9.98L24.39-9.98Q24.39-11.95 23.21-13.23 22.04-14.52 20.25-15.26 18.46-16.01 15.42-16.92L15.42-16.92Q11.69-18.04 9.34-19.1 6.99-20.17 5.36-22.25 3.74-24.33 3.74-27.75L3.74-27.75Q3.74-30.74 5.39-33.03 7.04-35.33 10.03-36.55 13.02-37.78 16.97-37.78L16.97-37.78Q20.33-37.78 23.56-36.8 26.79-35.81 29.3-34.15L29.3-34.15 27.16-29.56ZM59.88 0L54.97 0 54.97-3.95Q51.82 0.21 45.09 0.21L45.09 0.21Q42.16 0.21 39.94-0.91 37.73-2.03 36.53-4 35.33-5.98 35.33-8.43L35.33-8.43Q35.33-12.22 38.13-14.44 40.93-16.65 45.95-16.7L45.95-16.7 54.91-16.7 54.91-18.04Q54.91-21.03 53.07-22.65 51.23-24.28 47.71-24.28L47.71-24.28Q43.44-24.28 39.01-21.24L39.01-21.24 36.93-24.65Q39.97-26.63 42.56-27.51 45.15-28.39 48.72-28.39L48.72-28.39Q54.01-28.39 56.89-25.8 59.77-23.21 59.82-18.57L59.82-18.57 59.88 0ZM46.11-3.9Q49.58-3.9 52-5.58 54.43-7.26 54.91-10.03L54.91-10.03 54.91-12.86 46.64-12.86Q43.28-12.86 41.65-11.85 40.02-10.83 40.02-8.65L40.02-8.65Q40.02-6.46 41.68-5.18 43.33-3.9 46.11-3.9L46.11-3.9ZM82.56-5.71L83.89-1.87Q80.63 0.21 77.27 0.21L77.27 0.21Q73.91 0.21 71.83-1.79 69.75-3.79 69.75-7.84L69.75-7.84 69.75-23.48 65.75-23.48 65.75-27.27 69.75-27.27 69.75-34.85 74.76-34.85 74.76-27.27 83.41-27.27 83.41-23.48 74.76-23.48 74.76-8.75Q74.76-6.4 75.62-5.39 76.47-4.38 78.18-4.38L78.18-4.38Q80.21-4.38 82.56-5.71L82.56-5.71ZM116.98-8.38L116.98-37.36 122.05-37.36 122.05 0 116.87 0 95.52-28.92 95.52 0 90.4 0 90.4-37.36 95.58-37.36 116.98-8.38ZM143.61-28.39Q150.17-28.39 153.53-24.52 156.89-20.65 156.89-13.77L156.89-13.77Q156.89-12.7 156.84-12.17L156.84-12.17 134.53-12.17Q135.12-8.38 137.71-6.14 140.3-3.9 144.09-3.9L144.09-3.9Q146.59-3.9 148.75-4.8 150.92-5.71 152.52-7.36L152.52-7.36 155.24-4.54Q153.16-2.29 150.22-1.07 147.29 0.16 143.71 0.16L143.71 0.16Q139.55 0.16 136.32-1.63 133.09-3.42 131.3-6.67 129.52-9.93 129.52-14.09L129.52-14.09Q129.52-18.25 131.3-21.48 133.09-24.71 136.29-26.55 139.5-28.39 143.61-28.39L143.61-28.39ZM134.48-16.01L152.41-16.01Q152.2-19.85 149.85-22.07 147.5-24.28 143.66-24.28L143.66-24.28Q139.92-24.28 137.44-22.04 134.96-19.8 134.48-16.01L134.48-16.01ZM177.49-5.71L178.83-1.87Q175.57 0.21 172.21 0.21L172.21 0.21Q168.85 0.21 166.77-1.79 164.68-3.79 164.68-7.84L164.68-7.84 164.68-23.48 160.68-23.48 160.68-27.27 164.68-27.27 164.68-34.85 169.7-34.85 169.7-27.27 178.35-27.27 178.35-23.48 169.7-23.48 169.7-8.75Q169.7-6.4 170.55-5.39 171.41-4.38 173.12-4.38L173.12-4.38Q175.14-4.38 177.49-5.71L177.49-5.71Z" transform="translate(-1.5499999523162842, 37.779998779296875)" fill="#E55637"></path>
                                    </g>

                                </g>
                            </g>
                            <!---->
                        </g>
                    </g>
                    <defs v-gra="od"></defs>
                </svg>